<?xml version="1.0" standalone="no"?>
<!DOCTYPE svg PUBLIC "-//W3C//DTD SVG 20010904//EN"
 "http://www.w3.org/TR/2001/REC-SVG-20010904/DTD/svg10.dtd">
<svg version="1.0" xmlns="http://www.w3.org/2000/svg"
 width="900.000000pt" height="900.000000pt" viewBox="0 0 900.000000 900.000000"
 preserveAspectRatio="xMidYMid meet">
<metadata>
Created by potrace 1.10, written by Peter Selinger 2001-2011
</metadata>
<g transform="translate(0.000000,900.000000) scale(0.100000,-0.100000)"
fill="#ffffff" stroke="none">
<path d="M4160 8985 c0 -7 -6 -18 -14 -22 -34 -20 -36 -74 -36 -1211 0 -618
-2 -1127 -5 -1133 -4 -5 -43 -9 -87 -9 -179 0 -287 -42 -370 -145 -52 -64 -88
-159 -88 -233 0 -58 27 -146 60 -196 60 -91 57 -82 29 -113 -104 -112 -118
-308 -34 -443 12 -19 30 -41 39 -49 23 -19 21 -28 -22 -85 -59 -79 -74 -130
-69 -233 4 -100 17 -138 70 -210 20 -28 37 -54 37 -59 0 -4 -11 -19 -24 -33
-14 -15 -37 -51 -53 -81 -23 -47 -28 -70 -31 -151 -4 -90 -2 -99 28 -163 36
-76 106 -151 168 -181 23 -11 42 -27 42 -35 -1 -14 -33 -53 -149 -175 -26 -27
-86 -94 -133 -147 -75 -85 -137 -154 -173 -192 -6 -6 -35 -38 -65 -72 -133
-147 -226 -249 -241 -263 -46 -46 -173 -207 -223 -284 -61 -93 -169 -298 -185
-350 -5 -18 -21 -63 -34 -102 -23 -65 -35 -108 -67 -240 -16 -63 -28 -169 -36
-310 -14 -226 39 -550 125 -767 5 -12 19 -48 31 -78 207 -519 674 -959 1201
-1130 240 -78 360 -94 674 -87 283 6 348 15 540 71 127 37 295 110 428 185
211 119 430 314 586 521 77 102 151 212 151 225 0 2 13 26 28 52 55 94 127
281 165 428 95 365 85 719 -30 1100 -31 100 -52 151 -123 295 -94 190 -180
307 -404 554 -44 50 -106 117 -136 150 -30 34 -59 66 -65 72 -10 11 -138 151
-235 258 -105 117 -126 140 -192 210 -37 39 -67 76 -68 82 0 7 23 26 50 44 62
40 123 108 152 169 18 38 22 65 22 151 1 97 -1 110 -28 162 -16 32 -37 65 -48
74 -25 24 -23 50 10 93 43 58 59 92 72 162 20 103 -3 197 -71 289 -14 19 -29
40 -32 46 -4 7 7 29 24 50 66 82 74 108 74 234 0 124 -10 157 -70 228 -30 36
-32 65 -6 94 11 11 32 46 47 77 25 50 28 67 28 156 0 94 -2 103 -34 163 -53
100 -155 181 -248 197 -23 4 -45 11 -48 17 -4 6 144 162 329 347 184 185 346
354 360 376 13 23 33 73 42 113 17 69 17 75 0 144 -28 115 -106 217 -205 268
-57 29 -151 41 -222 28 -107 -18 -145 -45 -326 -228 -93 -94 -173 -170 -180
-170 -9 0 -12 163 -12 710 0 695 -3 760 -31 760 -4 0 -11 9 -14 20 -9 28 -99
30 -109 3 -3 -10 -13 -29 -21 -43 -10 -18 -15 -56 -15 -130 0 -58 -4 -110 -8
-117 -4 -7 -79 -86 -166 -177 -126 -131 -162 -164 -173 -155 -10 9 -13 69 -13
289 0 262 -1 279 -20 303 -11 14 -20 30 -20 36 0 7 -21 11 -50 11 -37 0 -50
-4 -50 -15z m510 -983 l0 -396 -174 -175 c-96 -97 -179 -172 -183 -167 -9 9
-17 725 -8 771 4 22 51 77 175 203 94 95 175 170 180 167 6 -4 10 -159 10
-403z m789 -390 c71 -48 96 -106 85 -192 -6 -43 -18 -57 -337 -377 -183 -183
-337 -333 -344 -333 -10 0 -13 54 -13 246 l0 245 199 199 c110 110 214 208
233 220 50 30 124 27 177 -8z m-794 -648 l0 -349 -169 -3 c-116 -2 -173 1
-182 9 -18 15 -20 318 -3 352 16 32 332 348 344 344 6 -2 10 -127 10 -353z
m476 -551 c42 -8 94 -66 113 -126 15 -48 15 -57 1 -97 -19 -53 -56 -94 -107
-121 -35 -18 -66 -19 -630 -19 -366 0 -607 4 -629 10 -57 16 -102 52 -126 100
-45 89 -18 177 73 237 26 17 70 18 629 23 330 3 611 4 624 2 13 -1 36 -6 52
-9z m-34 -578 c61 -44 78 -78 77 -156 0 -55 -4 -71 -28 -101 -59 -78 -10 -73
-676 -73 -327 0 -607 3 -621 7 -55 16 -119 108 -119 170 0 41 30 106 59 133
13 11 39 27 59 37 34 16 83 17 622 15 l585 -2 42 -30z m91 -568 c26 -25 46
-57 56 -91 15 -47 15 -56 2 -94 -22 -62 -45 -90 -98 -117 l-47 -25 -603 0
c-585 0 -604 1 -648 21 -24 11 -53 28 -63 37 -26 23 -57 95 -57 132 0 65 64
152 124 169 18 6 301 9 663 8 l632 -2 39 -38z m-123 -526 c120 -54 151 -196
64 -295 -29 -33 -49 -46 -77 -50 -67 -11 -1105 -14 -1147 -4 -93 22 -159 128
-135 218 14 51 63 108 115 131 37 17 79 19 590 19 511 0 553 -2 590 -19z
m-100 -600 c28 -30 55 -59 61 -65 6 -6 50 -56 99 -111 49 -55 94 -105 99 -111
6 -6 70 -75 141 -153 87 -96 130 -150 130 -166 0 -18 -29 -42 -144 -119 l-144
-97 -51 54 c-50 53 -63 67 -180 197 -33 36 -75 83 -95 105 -20 22 -120 132
-221 245 -102 113 -195 215 -207 226 -26 24 -29 40 -10 48 6 3 116 4 242 3
l230 -2 50 -54z m-756 -3 c98 -108 131 -150 131 -166 0 -9 -22 -39 -48 -67
-26 -27 -113 -122 -192 -210 -148 -164 -207 -229 -295 -323 l-51 -54 -144 97
c-145 97 -170 124 -138 149 7 6 49 52 93 101 43 50 86 97 95 106 82 87 145
155 254 277 l128 142 60 0 c59 0 60 0 107 -52z m298 -332 c4 -7 35 -43 68 -78
33 -36 94 -103 135 -149 76 -84 116 -129 291 -319 53 -58 116 -127 139 -155
24 -27 66 -75 94 -105 178 -191 233 -255 293 -346 62 -96 135 -253 150 -324 2
-14 11 -45 18 -70 26 -91 39 -274 26 -389 -12 -104 -32 -207 -53 -266 -146
-411 -450 -701 -858 -819 -484 -139 -1015 44 -1333 461 -26 34 -47 65 -47 69
0 4 -6 15 -14 23 -34 38 -119 226 -135 301 -5 19 -13 53 -19 75 -16 61 -32
192 -32 265 0 147 52 399 99 487 5 10 20 40 32 68 50 108 138 223 338 440 36
40 182 201 236 261 6 6 33 36 61 65 27 30 90 99 139 154 50 55 101 112 115
126 64 67 196 213 203 225 10 18 44 18 54 0z m-1092 -486 c47 -33 88 -60 91
-60 15 0 104 -77 104 -90 0 -8 -22 -38 -48 -65 -110 -117 -272 -315 -319 -390
-69 -110 -153 -324 -170 -430 -3 -22 -10 -46 -16 -52 -7 -10 -57 -13 -188 -13
-205 0 -187 -12 -165 110 49 266 150 491 325 726 92 124 270 324 288 324 7 0
51 -27 98 -60z m2276 23 c17 -21 67 -76 110 -123 241 -264 388 -553 458 -898
17 -82 15 -101 -13 -108 -32 -8 -333 -1 -342 8 -4 4 -10 27 -14 50 -25 146
-102 333 -199 478 -48 73 -133 176 -273 332 -38 41 -68 82 -68 90 0 8 58 54
130 102 71 48 132 92 136 97 12 19 43 7 75 -28z m-2635 -1488 c24 -175 36
-236 60 -293 8 -18 14 -39 14 -46 0 -18 58 -151 92 -209 15 -26 28 -50 28 -53
0 -2 14 -23 30 -46 17 -22 30 -45 30 -51 0 -5 -21 -30 -48 -56 -193 -186 -210
-201 -225 -196 -13 5 -56 69 -124 180 -65 108 -144 306 -186 470 -37 139 -67
416 -51 459 6 15 25 16 182 14 l176 -3 22 -170z m3226 35 c-1 -74 -9 -169 -18
-210 -20 -98 -43 -187 -55 -225 -6 -16 -14 -43 -19 -60 -22 -82 -117 -274
-201 -404 -43 -68 -56 -81 -75 -79 -25 3 -254 223 -254 243 0 7 17 42 38 76
70 117 142 285 171 399 20 77 51 283 51 336 0 28 3 54 7 58 4 3 86 5 182 4
l176 -3 -3 -135z m-2790 -951 c123 -121 310 -240 461 -295 128 -46 289 -84
355 -84 82 0 82 1 82 -185 0 -90 -3 -170 -6 -179 -7 -19 -28 -20 -159 -4 -129
15 -329 66 -440 113 -103 44 -285 142 -330 177 -5 5 -32 25 -60 45 -114 85
-227 192 -223 213 3 19 242 250 257 250 6 0 34 -23 63 -51z m2167 -61 c64 -61
120 -119 125 -127 16 -26 -194 -210 -350 -309 -28 -18 -54 -32 -57 -32 -3 0
-28 -13 -54 -28 -44 -26 -158 -76 -243 -107 -94 -35 -238 -68 -365 -85 -108
-14 -132 -13 -139 6 -3 9 -6 89 -6 179 0 186 0 185 82 185 98 0 325 64 460
131 143 70 305 186 378 270 14 16 31 29 39 29 8 0 66 -50 130 -112z"/>
</g>
</svg>
